<svg xmlns="http://www.w3.org/2000/svg" width="305" height="346.164" viewBox="0 0 305 346.164">
  <g id="Group_393" data-name="Group 393" transform="translate(-123.949 -105.679)" opacity="0.07">
    <g id="Polygon_4" data-name="Polygon 4" transform="matrix(-0.259, -0.966, 0.966, -0.259, 232.713, 231.401)" fill="none">
      <path d="M26.378,2.972a2,2,0,0,1,3.458,0l24.63,42.344a2,2,0,0,1-1.729,3.006H3.477a2,2,0,0,1-1.729-3.006Z" stroke="none"/>
      <path d="M 28.10715866088867 2.977741241455078 C 27.93420791625977 2.977741241455078 27.5037784576416 3.026191711425781 27.24274826049805 3.474941253662109 L 2.612667083740234 45.81863403320312 C 2.350177764892578 46.26990127563477 2.523529052734375 46.66927337646484 2.610237121582031 46.82003402709961 C 2.69696044921875 46.97078323364258 2.955009460449219 47.32143402099609 3.477069854736328 47.32143402099609 L 52.73723983764648 47.32143402099609 C 53.25930023193359 47.32143402099609 53.51735687255859 46.97079086303711 53.60406875610352 46.82003402709961 C 53.69078826904297 46.66927337646484 53.86413955688477 46.26990127563477 53.60165023803711 45.81863403320312 L 28.9715690612793 3.474952697753906 C 28.71053886413574 3.026191711425781 28.28009796142578 2.977741241455078 28.10715866088867 2.977741241455078 M 28.10715484619141 1.977741241455078 C 28.77875328063965 1.977741241455078 29.45035362243652 2.309207916259766 29.83596801757812 2.972141265869141 L 54.46604919433594 45.31583404541016 C 55.24160003662109 46.64915084838867 54.27972030639648 48.32143402099609 52.73723983764648 48.32143402099609 L 3.477069854736328 48.32143402099609 C 1.934597015380859 48.32143402099609 0.9727096557617188 46.64915084838867 1.748268127441406 45.31583404541016 L 26.37834930419922 2.972141265869141 C 26.76395797729492 2.309207916259766 27.43555641174316 1.977741241455078 28.10715484619141 1.977741241455078 Z" stroke="none" fill="#fff"/>
    </g>
    <g id="Polygon_6" data-name="Polygon 6" transform="translate(167.658 451.843) rotate(-120)" fill="none">
      <path d="M20.14,2.953a2,2,0,0,1,3.453,0L41.974,34.391A2,2,0,0,1,40.247,37.4H3.486A2,2,0,0,1,1.76,34.391Z" stroke="none"/>
      <path d="M 21.86674499511719 2.962543487548828 C 21.69424438476562 2.962543487548828 21.26481437683105 3.01080322265625 21.00346565246582 3.457820892333984 L 2.622783660888672 34.89600372314453 C 2.358943939208984 35.34726333618164 2.532016754150391 35.7473030090332 2.618675231933594 35.89835357666016 C 2.705333709716797 36.04940414428711 2.963325500488281 36.40072250366211 3.486064910888672 36.40072250366211 L 40.2474250793457 36.40072250366211 C 40.77016448974609 36.40072250366211 41.02815628051758 36.04940414428711 41.11481475830078 35.89835357666016 C 41.20146560668945 35.7473030090332 41.37453460693359 35.34727096557617 41.11069488525391 34.89600372314453 L 22.73002433776855 3.457813262939453 C 22.46867561340332 3.01080322265625 22.03924560546875 2.962543487548828 21.86674499511719 2.962543487548828 M 21.86674499511719 1.962543487548828 C 22.53697967529297 1.962543487548828 23.20721435546875 2.292728424072266 23.59330558776855 2.953090667724609 L 41.97397613525391 34.39127349853516 C 42.75351333618164 35.72457122802734 41.79188537597656 37.40072250366211 40.2474250793457 37.40072250366211 L 3.486064910888672 37.40072250366211 C 1.941604614257812 37.40072250366211 0.9799766540527344 35.72457122802734 1.759506225585938 34.39127349853516 L 20.14018440246582 2.953090667724609 C 20.52627563476562 2.292728424072266 21.19651031494141 1.962543487548828 21.86674499511719 1.962543487548828 Z" stroke="none" fill="#fff"/>
    </g>
    <g id="Ellipse_2" data-name="Ellipse 2" transform="translate(348.949 260.679)" fill="none" stroke="#fff" stroke-width="1">
      <ellipse cx="40" cy="39" rx="40" ry="39" stroke="none"/>
      <ellipse cx="40" cy="39" rx="39.5" ry="38.5" fill="none"/>
    </g>
    <g id="Ellipse_3" data-name="Ellipse 3" transform="translate(123.949 214.679)" fill="none" stroke="#fff" stroke-width="1">
      <circle cx="23" cy="23" r="23" stroke="none"/>
      <circle cx="23" cy="23" r="22.5" fill="none"/>
    </g>
    <line id="Line_1" data-name="Line 1" x1="175.521" y2="175.521" transform="translate(235.24 146.329)" fill="none" stroke="#fff" stroke-linecap="round" stroke-width="1"/>
    <g id="Rectangle_103" data-name="Rectangle 103" transform="translate(320.949 105.679)" fill="none" stroke="#fff" stroke-width="1">
      <rect width="43" height="44" stroke="none"/>
      <rect x="0.5" y="0.5" width="42" height="43" fill="none"/>
    </g>
    <g id="Rectangle_105" data-name="Rectangle 105" transform="translate(205.949 264.679)" fill="none" stroke="#fff" stroke-width="1">
      <rect width="18" height="20" stroke="none"/>
      <rect x="0.5" y="0.5" width="17" height="19" fill="none"/>
    </g>
  </g>
</svg>
