<svg xmlns="http://www.w3.org/2000/svg" width="30.53" height="30.5" viewBox="0 0 30.53 30.5">
  <path id="Path_240" data-name="Path 240" d="M513.915,376.252a3.555,3.555,0,0,0-2.536-3.616.867.867,0,0,0-.422-.137l-.367-.01h-.009c-2.672-.069-6.578-.03-8.415-.005l.273-1.3c.043-.341.092-.671.14-.992a9.126,9.126,0,0,0-.158-4.712c-.3-.86-.584-1.726-.868-2.592l-.441-1.334a.935.935,0,0,0-.1-.211,3.7,3.7,0,0,0-2.542-1.565,4.056,4.056,0,0,0-3.266,1.43.888.888,0,0,0-.26.628l0,2.977a4.18,4.18,0,0,1-.743,3.082c-.548.741-1.088,1.488-1.628,2.236l-2.962,3.5v-.244a.888.888,0,0,0-.888-.888H484.28a.888.888,0,0,0-.888.888v15.1a.889.889,0,0,0,.888.888h4.442a.889.889,0,0,0,.888-.888h0l2.132,1.6a.889.889,0,0,0,.533.179h15.99a.878.878,0,0,0,.561-.215c.049-.01.1-.017.143-.029a3.725,3.725,0,0,0,2.521-3.238,3.522,3.522,0,0,0-.716-2.335,3.507,3.507,0,0,0,1.213-5.266A3.544,3.544,0,0,0,513.915,376.252ZM487.834,387.6h-2.665V374.276h2.665Zm21.994-9.793c-.531-.054-1.122-.078-1.345.528a.889.889,0,0,0,.425,1.081c.5.25,1,.17,1.444.571a1.776,1.776,0,0,1-.228,2.8,2.92,2.92,0,0,1-1.909.243.885.885,0,1,0-.163,1.761,1.777,1.777,0,0,1,.513,3.438c-.231.082-.636.144-1,.258H492.572l-2.962-2.221v-9.894l4.4-5.2c.537-.742,1.074-1.483,1.618-2.22a5.858,5.858,0,0,0,1.092-4.154l0-2.577a2.153,2.153,0,0,1,1.563-.675,1.9,1.9,0,0,1,1.192.709l.394,1.189c.288.876.575,1.752.878,2.621a7.525,7.525,0,0,1,.079,3.866c-.05.335-.1.679-.146,1.035l-.4,2.309a.89.89,0,0,0,.22.7.916.916,0,0,0,.677.295c.059,0,5.778-.1,9.318-.012a1.778,1.778,0,0,1,1.649,1.88A1.924,1.924,0,0,1,509.828,377.807Z" transform="translate(513.922 390.265) rotate(180)" fill="#fff" opacity="0.8"/>
</svg>
