<svg xmlns="http://www.w3.org/2000/svg" width="97.166" height="40.935" viewBox="0 0 97.166 40.935">
  <g id="Group_402" data-name="Group 402" transform="translate(-37.478 -60.167)">
    <g id="Group_337" data-name="Group 337" transform="translate(37.478 60.167)">
      <path id="Path_3" data-name="Path 3" d="M158.394,127.751h-1.918l7.86-7.628a1.859,1.859,0,1,0-1.8-1.262l-8.766,8.508-9.633-8.624c.007-.044.014-.087.018-.132a1.869,1.869,0,1,0-1.533,1.677l8.334,7.461H137.515a7.72,7.72,0,0,0-7.72,7.72v14.146a7.72,7.72,0,0,0,7.72,7.72h20.879a7.72,7.72,0,0,0,7.72-7.72V135.471A7.72,7.72,0,0,0,158.394,127.751Zm2.532,21.867a2.534,2.534,0,0,1-2.532,2.532H137.515a2.534,2.534,0,0,1-2.532-2.532V135.471a2.535,2.535,0,0,1,2.532-2.532h20.879a2.534,2.534,0,0,1,2.532,2.532Z" transform="translate(-129.795 -116.403)" fill="#fff"/>
      <path id="Path_4" data-name="Path 4" d="M209.271,258.316h-.687a.651.651,0,0,0-.721.721v.6a.644.644,0,0,0,.721.721h.687a.632.632,0,0,0,.7-.721v-.6A.639.639,0,0,0,209.271,258.316Z" transform="translate(-191.355 -228.307)" fill="#fff"/>
      <path id="Path_5" data-name="Path 5" d="M203.188,209.21a4.838,4.838,0,0,0-2.66.789c-.395.258-.395.584-.12.962l.292.429a.717.717,0,0,0,1.03.172,2.861,2.861,0,0,1,1.27-.343,1.531,1.531,0,0,1,1.665,1.424c0,1.75-2.832,2.317-2.832,4.5v.275a.639.639,0,0,0,.721.7h.687c.412,0,.6-.137.686-.5l.034-.292c.206-1.733,2.986-2.2,2.986-4.891C206.946,210.412,205.127,209.21,203.188,209.21Z" transform="translate(-185.323 -189.585)" fill="#fff"/>
    </g>
    <text id="FLIBO" transform="translate(82.644 95.494)" fill="#fff" font-size="26" font-family="Balboa-Bold, Balboa" font-weight="700"><tspan x="0" y="0">FLIBO</tspan></text>
  </g>
</svg>
