<svg xmlns="http://www.w3.org/2000/svg" width="34.493" height="29.981" viewBox="0 0 34.493 29.981"><g transform="translate(-439.125 -363.998)"><path d="M456.377,393.979a1,1,0,0,1-.674-.261l-12.861-11.724c-5.247-5.247-4.385-11.566-.838-15.113,3.387-3.387,9.3-4.327,14.373.141,5.057-4.452,10.967-3.509,14.354-.121,3.547,3.546,4.415,9.859-.787,15.061l-.033.032-12.86,11.723A1,1,0,0,1,456.377,393.979Zm-7.429-28a7.844,7.844,0,0,0-5.53,2.314c-2.756,2.756-3.68,7.766.8,12.252l12.154,11.077,12.169-11.093c4.455-4.469,3.524-9.464.771-12.217s-7.761-3.686-12.233.786a1,1,0,0,1-1.414,0A9.512,9.512,0,0,0,448.948,365.982Zm20.289,15.273h0Z" fill="#333"/></g></svg>