<svg xmlns="http://www.w3.org/2000/svg" width="34.515" height="30.354" viewBox="0 0 34.515 30.354"><g transform="translate(-629.745 -413.124)"><path d="M659.857,430.4,647,442.125,634.136,430.4c-9.647-9.647,3.213-22.508,12.861-12.86C656.619,407.918,669.48,420.779,659.857,430.4Z" fill="#f25757"/><path d="M647,443.478,633.462,431.14c-5.247-5.246-4.385-11.565-.838-15.112a9.76,9.76,0,0,1,6.936-2.9h0A11.2,11.2,0,0,1,647,416.169c5.056-4.454,10.965-3.511,14.354-.122a9.773,9.773,0,0,1,2.909,6.931,11.484,11.484,0,0,1-3.7,8.13l-.033.032Zm-7.429-28.349a7.84,7.84,0,0,0-5.53,2.314c-2.756,2.756-3.68,7.766.8,12.251L647,440.772l12.169-11.094a9.528,9.528,0,0,0,3.094-6.7,7.785,7.785,0,0,0-2.323-5.519c-2.757-2.756-7.761-3.685-12.233.787l-.707.707-.707-.707A9.514,9.514,0,0,0,639.568,415.129ZM659.857,430.4h0Z" fill="#333"/></g></svg>