<svg xmlns="http://www.w3.org/2000/svg" width="34.368" height="34.335" viewBox="0 0 34.368 34.335"><path d="M517.753,378.325a4,4,0,0,0-2.855-4.071.976.976,0,0,0-.475-.154l-.413-.011H514c-3.008-.078-7.4-.034-9.473-.006l.307-1.458c.048-.384.1-.755.158-1.117a10.273,10.273,0,0,0-.178-5.3c-.336-.968-.657-1.943-.977-2.918l-.5-1.5a1.052,1.052,0,0,0-.117-.238,4.167,4.167,0,0,0-2.862-1.762,4.566,4.566,0,0,0-3.677,1.61,1,1,0,0,0-.293.707l0,3.351c.014,1.537.021,2.309-.837,3.469-.617.834-1.225,1.675-1.833,2.517l-3.334,3.938V375.1a1,1,0,0,0-1-1h-5a1,1,0,0,0-1,1v17a1,1,0,0,0,1,1h5a1,1,0,0,0,1-1h0l2.4,1.8a1,1,0,0,0,.6.2h18a.989.989,0,0,0,.632-.242c.055-.011.114-.019.161-.033a4.194,4.194,0,0,0,2.838-3.645,3.965,3.965,0,0,0-.806-2.629,3.948,3.948,0,0,0,1.365-5.928A3.99,3.99,0,0,0,517.753,378.325ZM488.392,391.1h-3v-15h3Zm24.76-11.024c-.6-.061-1.263-.088-1.514.594a1,1,0,0,0,.478,1.217c.558.281,1.13.191,1.626.643a2,2,0,0,1-.257,3.154,3.287,3.287,0,0,1-2.149.273,1,1,0,1,0-.184,1.982,2,2,0,0,1,.578,3.87c-.26.092-.716.162-1.125.291H493.726l-3.334-2.5V378.462l4.954-5.854c.6-.835,1.209-1.67,1.821-2.5a6.594,6.594,0,0,0,1.229-4.676l0-2.9a2.423,2.423,0,0,1,1.76-.76,2.134,2.134,0,0,1,1.342.8l.443,1.339c.324.986.647,1.972.988,2.951a8.471,8.471,0,0,1,.089,4.352c-.056.377-.114.764-.164,1.165l-.45,2.6a1,1,0,0,0,.248.792,1.032,1.032,0,0,0,.762.332c.066,0,6.505-.113,10.49-.013a2,2,0,0,1,1.856,2.116A2.166,2.166,0,0,1,513.152,380.076Z" transform="translate(517.76 394.1) rotate(180)" fill="#333"/></svg>