<svg id="Group_401" data-name="Group 401" xmlns="http://www.w3.org/2000/svg" width="116.216" height="8" viewBox="0 0 116.216 8">
  <path id="Path_246" data-name="Path 246" d="M527.068,364c-2.7,0-4.06-1.974-5.261-3.716-1.149-1.666-2.235-3.241-4.333-3.241s-3.184,1.574-4.332,3.241c-1.2,1.742-2.562,3.716-5.261,3.716s-4.059-1.974-5.26-3.716c-1.149-1.667-2.235-3.241-4.333-3.241s-3.183,1.574-4.332,3.241c-1.2,1.742-2.562,3.716-5.261,3.716s-4.059-1.974-5.26-3.716c-1.149-1.667-2.235-3.241-4.333-3.241s-3.182,1.574-4.331,3.241c-1.2,1.742-2.562,3.716-5.26,3.716s-4.059-1.974-5.26-3.716c-1.149-1.666-2.234-3.241-4.331-3.241s-3.183,1.574-4.331,3.241c-1.2,1.742-2.561,3.716-5.259,3.716s-4.059-1.974-5.26-3.716c-1.149-1.666-2.234-3.241-4.332-3.241s-3.183,1.574-4.332,3.241c-1.2,1.742-2.562,3.716-5.26,3.716s-4.059-1.974-5.26-3.716c-1.149-1.666-2.234-3.241-4.332-3.241a.523.523,0,1,1,0-1.043c2.7,0,4.059,1.974,5.26,3.716,1.149,1.666,2.234,3.241,4.332,3.241s3.183-1.574,4.332-3.241c1.2-1.742,2.562-3.716,5.26-3.716s4.059,1.974,5.26,3.715c1.149,1.667,2.234,3.241,4.332,3.241s3.182-1.574,4.331-3.241c1.2-1.742,2.562-3.716,5.259-3.716s4.059,1.974,5.26,3.715c1.149,1.667,2.234,3.241,4.332,3.241s3.183-1.574,4.332-3.241c1.2-1.742,2.562-3.715,5.259-3.715s4.06,1.974,5.261,3.716c1.149,1.666,2.235,3.241,4.332,3.241s3.184-1.574,4.333-3.241c1.2-1.742,2.562-3.715,5.26-3.715s4.06,1.974,5.261,3.716c1.149,1.666,2.235,3.241,4.332,3.241s3.184-1.574,4.332-3.241c1.2-1.742,2.562-3.716,5.261-3.716s4.06,1.974,5.261,3.716c1.149,1.666,2.235,3.241,4.333,3.241s3.184-1.574,4.333-3.241c1.2-1.742,2.563-3.716,5.261-3.716a.523.523,0,1,1,0,1.043c-2.1,0-3.184,1.574-4.333,3.241C531.128,362.026,529.767,364,527.068,364Z" transform="translate(-421 -356)" fill="#d6f0dc"/>
</svg>
