<?xml version="1.0" encoding="utf-8"?>
<!-- Generator: Adobe Illustrator 23.0.3, SVG Export Plug-In . SVG Version: 6.00 Build 0)  -->
<svg version="1.1" id="Layer_1" xmlns="http://www.w3.org/2000/svg" xmlns:xlink="http://www.w3.org/1999/xlink" x="0px" y="0px"
	 viewBox="0 0 989.2 420.5" style="enable-background:new 0 0 989.2 420.5;" xml:space="preserve">
<style type="text/css">
	.st0{fill:#FFFFFF;}
	.st1{fill-rule:evenodd;clip-rule:evenodd;fill:#FFFFFF;}
</style>
<rect x="178.9" y="-1" transform="matrix(0.667 -0.7451 0.7451 0.667 5.7568 167.2376)" class="st0" width="22.2" height="156.3"/>
<rect x="216.7" y="67.8" transform="matrix(0.7176 -0.6965 0.6965 0.7176 28.8629 229.0585)" class="st0" width="160.3" height="22.2"/>
<path class="st1" d="M147.5,22.7c-0.9,10.5-10.1,18.3-20.6,17.5c-10.5-0.9-18.3-10.1-17.5-20.6C110.2,9,119.5,1.2,130,2.1
	C140.5,2.9,148.3,12.2,147.5,22.7"/>
<path class="st1" d="M373.3,16.8c1.3,10.5-6.2,20-16.6,21.3c-10.5,1.3-20-6.2-21.3-16.6c-1.3-10.5,6.2-20,16.6-21.3
	C362.5-1.1,372,6.3,373.3,16.8"/>
<path class="st0" d="M298.4,169.9c11.8,0,21.4,9.6,21.4,21.4v154.6c0,11.8-9.6,21.4-21.4,21.4H74.7c-11.8,0-21.4-9.6-21.4-21.4
	V191.2c0-11.8,9.6-21.4,21.4-21.4H298.4 M298.4,116.6H74.7C33.4,116.6,0,150,0,191.2v154.6c0,41.2,33.4,74.7,74.7,74.7h223.7
	c41.2,0,74.7-33.4,74.7-74.7V191.2C373,150,339.6,116.6,298.4,116.6"/>
<path class="st0" d="M434,212.5c0-7.1,3.7-10.8,10.8-10.8h64.5c7.1,0,10.8,3.7,10.8,10.8v7.9c0,7.1-3.7,10.8-10.8,10.8h-40.9v29.5
	h32.1c7.1,0,10.8,3.7,10.8,10.8v7.9c0,7.1-3.7,10.8-10.8,10.8h-32.1v41.3c0,7.1-3.7,10.8-10.8,10.8h-12.8c-7.1,0-10.8-3.7-10.8-10.8
	V212.5z"/>
<path class="st0" d="M542.1,212.5c0-7.1,3.7-10.8,10.8-10.8h12.8c7.1,0,10.8,3.7,10.8,10.8v100.4h46.6c7.1,0,10.8,3.7,10.8,10.8v7.9
	c0,7.1-3.7,10.8-10.8,10.8h-70.3c-7.1,0-10.8-3.7-10.8-10.8V212.5z"/>
<path class="st0" d="M653.1,212.5c0-7.1,3.7-10.8,10.8-10.8h12.8c7.1,0,10.8,3.7,10.8,10.8v119.1c0,7.1-3.7,10.8-10.8,10.8h-12.8
	c-7.1,0-10.8-3.7-10.8-10.8V212.5z"/>
<path class="st0" d="M719.6,212.5c0-7.1,3.7-10.8,10.8-10.8h40.9c28.1,0,47.8,12.6,47.8,36.8c0,11.8-5.7,23.8-16.3,29.9v0.4
	c16.1,4.9,22,19.3,22,31.7c0,30.7-25.6,41.9-53.5,41.9h-40.9c-7.1,0-10.8-3.7-10.8-10.8V212.5z M771.7,256.2c8.7,0,12.4-6.3,12.4-13
	c0-6.5-3.7-12-13-12H754v25H771.7z M774.7,312.9c10,0,15-6.9,15-14.8c0-7.9-4.7-14.4-14.8-14.4H754v29.1H774.7z"/>
<path class="st0" d="M915.6,199.3c43.7,0,73.6,31.5,73.6,71.8c0,41.3-29.9,73.6-73.6,73.6c-43.7,0-73.6-32.3-73.6-73.6
	C842,230.8,871.9,199.3,915.6,199.3 M915.6,313.3c22.2,0,38-18.1,38-42.1c0-23-15.7-40.3-38-40.3c-22.2,0-38,17.3-38,40.3
	C877.6,295.2,893.3,313.3,915.6,313.3"/>
<path class="st0" d="M167.4,289.4v-1.9c0-20.2,27.9-28.6,27.9-43.5c0-6.5-5.9-11.3-12.6-11.3c-3.2,0-6.4,1.1-9.2,2.7
	c-5.5,2.9-11,2.9-14.4-2.5l-4.3-6.9c-3.6-5.5-3.7-10.3,1.6-13.9c6.2-4.4,16.2-9.4,29.5-9.4c19.9,0,41.4,12.8,41.4,37.4
	c0,29-26.8,35.7-30.2,50.6l-0.5,2.3c-1.2,5.2-3.7,6.9-9.2,6.9h-10.1C170.8,299.9,167.4,296.3,167.4,289.4 M168.1,323.9
	c0-6.9,3.4-10.5,9.8-10.5h8.5c6.4,0,9.8,3.6,9.8,10.5v7.6c0,6.9-3.4,10.5-9.8,10.5h-8.5c-6.4,0-9.8-3.6-9.8-10.5V323.9z"/>
</svg>
